<svg width="142" height="32" viewBox="0 0 142 32" fill="none" xmlns="http://www.w3.org/2000/svg">
<mask id="path-1-outside-1_316_7" maskUnits="userSpaceOnUse" x="-0.305939" y="0.279999" width="56" height="32" fill="black">
<rect fill="white" x="-0.305939" y="0.279999" width="56" height="32"/>
<path d="M0.694061 31V3.48H14.1341C15.9207 3.48 17.3741 3.74667 18.4941 4.28C19.6407 4.78667 20.4807 5.56 21.0141 6.6C21.5741 7.61333 21.8541 8.88 21.8541 10.4C21.8541 11.6533 21.6807 12.72 21.3341 13.6C20.9874 14.48 20.4674 15.1867 19.7741 15.72C19.0807 16.2533 18.1874 16.64 17.0941 16.88V17.04C18.3207 17.28 19.2941 17.68 20.0141 18.24C20.7607 18.7733 21.2941 19.4933 21.6141 20.4C21.9341 21.28 22.0941 22.3867 22.0941 23.72C22.0941 24.8133 21.9607 25.8133 21.6941 26.72C21.4274 27.6 20.9874 28.36 20.3741 29C19.7874 29.64 18.9874 30.1333 17.9741 30.48C16.9607 30.8267 15.6941 31 14.1741 31H0.694061ZM6.37406 26.44H12.2941C13.3607 26.44 14.2007 26.3467 14.8141 26.16C15.4274 25.9467 15.8407 25.5867 16.0541 25.08C16.2941 24.5467 16.4141 23.8133 16.4141 22.88C16.4141 21.9733 16.2941 21.2667 16.0541 20.76C15.8141 20.2267 15.3874 19.8533 14.7741 19.64C14.1874 19.4267 13.3607 19.32 12.2941 19.32H6.37406V26.44ZM6.37406 14.84H12.0941C13.1074 14.84 13.9074 14.7333 14.4941 14.52C15.1074 14.3067 15.5341 13.96 15.7741 13.48C16.0407 12.9733 16.1741 12.32 16.1741 11.52C16.1741 10.5867 16.0541 9.88 15.8141 9.4C15.6007 8.89333 15.2007 8.54667 14.6141 8.36C14.0541 8.17333 13.2141 8.08 12.0941 8.08H6.37406V14.84Z"/>
<path d="M36.3263 31.32C34.5129 31.32 33.0063 31.2 31.8063 30.96C30.6063 30.72 29.6463 30.3467 28.9263 29.84C28.2329 29.3067 27.6996 28.64 27.3263 27.84C26.9796 27.0133 26.7529 26.0267 26.6463 24.88C26.5663 23.7067 26.5262 22.36 26.5262 20.84C26.5262 19.0267 26.6196 17.4533 26.8063 16.12C26.9929 14.7867 27.3796 13.6933 27.9663 12.84C28.5796 11.96 29.5129 11.32 30.7663 10.92C32.0463 10.4933 33.7396 10.28 35.8463 10.28C37.5529 10.28 38.9396 10.4133 40.0063 10.68C41.0729 10.9467 41.9129 11.3467 42.5262 11.88C43.1662 12.4133 43.6196 13.1067 43.8862 13.96C44.1796 14.7867 44.3663 15.7733 44.4463 16.92C44.5262 18.0667 44.5662 19.3733 44.5662 20.84V22.4H31.8063C31.8063 23.4133 31.8463 24.24 31.9263 24.88C32.0329 25.4933 32.2596 25.96 32.6063 26.28C32.9796 26.6 33.5529 26.8133 34.3263 26.92C35.1263 27.0267 36.2062 27.08 37.5662 27.08C38.1262 27.08 38.7529 27.0667 39.4463 27.04C40.1663 27.0133 40.8996 26.9733 41.6463 26.92C42.4196 26.8667 43.1263 26.8133 43.7663 26.76V30.68C43.1796 30.8133 42.4596 30.92 41.6063 31C40.7796 31.1067 39.8996 31.1867 38.9663 31.24C38.0596 31.2933 37.1796 31.32 36.3263 31.32ZM39.5263 19.76V19.12C39.5263 18.08 39.4596 17.2533 39.3263 16.64C39.2196 16 39.0196 15.52 38.7262 15.2C38.4596 14.88 38.0863 14.68 37.6063 14.6C37.1263 14.4933 36.5129 14.44 35.7663 14.44C34.8863 14.44 34.1929 14.5067 33.6862 14.64C33.1796 14.7467 32.7929 14.9733 32.5262 15.32C32.2596 15.64 32.0729 16.12 31.9663 16.76C31.8596 17.3733 31.8063 18.16 31.8063 19.12H40.2463L39.5263 19.76Z"/>
<path d="M49.5119 31V1.28H54.8319V31H49.5119Z"/>
</mask>
<path d="M0.694061 31V3.48H14.1341C15.9207 3.48 17.3741 3.74667 18.4941 4.28C19.6407 4.78667 20.4807 5.56 21.0141 6.6C21.5741 7.61333 21.8541 8.88 21.8541 10.4C21.8541 11.6533 21.6807 12.72 21.3341 13.6C20.9874 14.48 20.4674 15.1867 19.7741 15.72C19.0807 16.2533 18.1874 16.64 17.0941 16.88V17.04C18.3207 17.28 19.2941 17.68 20.0141 18.24C20.7607 18.7733 21.2941 19.4933 21.6141 20.4C21.9341 21.28 22.0941 22.3867 22.0941 23.72C22.0941 24.8133 21.9607 25.8133 21.6941 26.72C21.4274 27.6 20.9874 28.36 20.3741 29C19.7874 29.64 18.9874 30.1333 17.9741 30.48C16.9607 30.8267 15.6941 31 14.1741 31H0.694061ZM6.37406 26.44H12.2941C13.3607 26.44 14.2007 26.3467 14.8141 26.16C15.4274 25.9467 15.8407 25.5867 16.0541 25.08C16.2941 24.5467 16.4141 23.8133 16.4141 22.88C16.4141 21.9733 16.2941 21.2667 16.0541 20.76C15.8141 20.2267 15.3874 19.8533 14.7741 19.64C14.1874 19.4267 13.3607 19.32 12.2941 19.32H6.37406V26.44ZM6.37406 14.84H12.0941C13.1074 14.84 13.9074 14.7333 14.4941 14.52C15.1074 14.3067 15.5341 13.96 15.7741 13.48C16.0407 12.9733 16.1741 12.32 16.1741 11.52C16.1741 10.5867 16.0541 9.88 15.8141 9.4C15.6007 8.89333 15.2007 8.54667 14.6141 8.36C14.0541 8.17333 13.2141 8.08 12.0941 8.08H6.37406V14.84Z" fill="#49938A"/>
<path d="M36.3263 31.32C34.5129 31.32 33.0063 31.2 31.8063 30.96C30.6063 30.72 29.6463 30.3467 28.9263 29.84C28.2329 29.3067 27.6996 28.64 27.3263 27.84C26.9796 27.0133 26.7529 26.0267 26.6463 24.88C26.5663 23.7067 26.5262 22.36 26.5262 20.84C26.5262 19.0267 26.6196 17.4533 26.8063 16.12C26.9929 14.7867 27.3796 13.6933 27.9663 12.84C28.5796 11.96 29.5129 11.32 30.7663 10.92C32.0463 10.4933 33.7396 10.28 35.8463 10.28C37.5529 10.28 38.9396 10.4133 40.0063 10.68C41.0729 10.9467 41.9129 11.3467 42.5262 11.88C43.1662 12.4133 43.6196 13.1067 43.8862 13.96C44.1796 14.7867 44.3663 15.7733 44.4463 16.92C44.5262 18.0667 44.5662 19.3733 44.5662 20.84V22.4H31.8063C31.8063 23.4133 31.8463 24.24 31.9263 24.88C32.0329 25.4933 32.2596 25.96 32.6063 26.28C32.9796 26.6 33.5529 26.8133 34.3263 26.92C35.1263 27.0267 36.2062 27.08 37.5662 27.08C38.1262 27.08 38.7529 27.0667 39.4463 27.04C40.1663 27.0133 40.8996 26.9733 41.6463 26.92C42.4196 26.8667 43.1263 26.8133 43.7663 26.76V30.68C43.1796 30.8133 42.4596 30.92 41.6063 31C40.7796 31.1067 39.8996 31.1867 38.9663 31.24C38.0596 31.2933 37.1796 31.32 36.3263 31.32ZM39.5263 19.76V19.12C39.5263 18.08 39.4596 17.2533 39.3263 16.64C39.2196 16 39.0196 15.52 38.7262 15.2C38.4596 14.88 38.0863 14.68 37.6063 14.6C37.1263 14.4933 36.5129 14.44 35.7663 14.44C34.8863 14.44 34.1929 14.5067 33.6862 14.64C33.1796 14.7467 32.7929 14.9733 32.5262 15.32C32.2596 15.64 32.0729 16.12 31.9663 16.76C31.8596 17.3733 31.8063 18.16 31.8063 19.12H40.2463L39.5263 19.76Z" fill="#49938A"/>
<path d="M49.5119 31V1.28H54.8319V31H49.5119Z" fill="#49938A"/>
<path d="M0.694061 31H0.194061V31.5H0.694061V31ZM0.694061 3.48V2.98H0.194061V3.48H0.694061ZM18.4941 4.28L18.2791 4.73143L18.2855 4.73448L18.292 4.73734L18.4941 4.28ZM21.0141 6.6L20.5692 6.82816L20.5727 6.83506L20.5764 6.84184L21.0141 6.6ZM21.3341 13.6L21.7993 13.7833L21.7993 13.7833L21.3341 13.6ZM19.7741 15.72L19.4692 15.3237L19.4692 15.3237L19.7741 15.72ZM17.0941 16.88L16.9869 16.3916L16.5941 16.4779V16.88H17.0941ZM17.0941 17.04H16.5941V17.4517L16.9981 17.5307L17.0941 17.04ZM20.0141 18.24L19.7071 18.6347L19.7151 18.6409L19.7234 18.6469L20.0141 18.24ZM21.6141 20.4L21.1425 20.5664L21.1442 20.5709L21.6141 20.4ZM21.6941 26.72L22.1726 26.865L22.1737 26.8611L21.6941 26.72ZM20.3741 29L20.013 28.654L20.0055 28.6621L20.3741 29ZM17.9741 30.48L17.8122 30.0069L17.8122 30.0069L17.9741 30.48ZM6.37406 26.44H5.87406V26.94H6.37406V26.44ZM14.8141 26.16L14.9596 26.6383L14.969 26.6355L14.9783 26.6322L14.8141 26.16ZM16.0541 25.08L15.598 24.8748L15.5932 24.886L16.0541 25.08ZM16.0541 20.76L15.598 20.9652L15.6022 20.974L16.0541 20.76ZM14.7741 19.64L14.6032 20.1099L14.6098 20.1122L14.7741 19.64ZM6.37406 19.32V18.82H5.87406V19.32H6.37406ZM6.37406 14.84H5.87406V15.34H6.37406V14.84ZM14.4941 14.52L14.3298 14.0477L14.3232 14.0501L14.4941 14.52ZM15.7741 13.48L15.3315 13.2471L15.3268 13.2564L15.7741 13.48ZM15.8141 9.4L15.3532 9.59403L15.3596 9.60904L15.3668 9.62361L15.8141 9.4ZM14.6141 8.36L14.4559 8.83439L14.4625 8.83646L14.6141 8.36ZM6.37406 8.08V7.58H5.87406V8.08H6.37406ZM31.8063 30.96L31.7082 31.4503L31.8063 30.96ZM28.9263 29.84L28.6214 30.2363L28.6298 30.2428L28.6385 30.2489L28.9263 29.84ZM27.3263 27.84L26.8652 28.0334L26.869 28.0425L26.8732 28.0514L27.3263 27.84ZM26.6463 24.88L26.1473 24.914L26.1484 24.9263L26.6463 24.88ZM26.8063 16.12L27.3014 16.1893L27.3014 16.1893L26.8063 16.12ZM27.9663 12.84L27.556 12.5541L27.5542 12.5567L27.9663 12.84ZM30.7663 10.92L30.9183 11.3964L30.9244 11.3943L30.7663 10.92ZM42.5262 11.88L42.1981 12.2574L42.2062 12.2641L42.5262 11.88ZM43.8862 13.96L43.409 14.1091L43.4119 14.1182L43.415 14.1272L43.8862 13.96ZM44.4463 16.92L44.945 16.8852L44.945 16.8852L44.4463 16.92ZM44.5662 22.4V22.9H45.0662V22.4H44.5662ZM31.8063 22.4V21.9H31.3063V22.4H31.8063ZM31.9263 24.88L31.4301 24.942L31.4316 24.9539L31.4336 24.9657L31.9263 24.88ZM32.6063 26.28L32.2671 26.6474L32.2739 26.6536L32.2809 26.6596L32.6063 26.28ZM34.3263 26.92L34.2579 27.4153L34.2602 27.4156L34.3263 26.92ZM39.4463 27.04L39.4277 26.5403L39.427 26.5404L39.4463 27.04ZM41.6463 26.92L41.6119 26.4212L41.6106 26.4213L41.6463 26.92ZM43.7663 26.76H44.2663V26.2166L43.7247 26.2617L43.7663 26.76ZM43.7663 30.68L43.8771 31.1676L44.2663 31.0791V30.68H43.7663ZM41.6063 31L41.5596 30.5022L41.5509 30.503L41.5423 30.5041L41.6063 31ZM38.9663 31.24L38.9377 30.7408L38.9369 30.7409L38.9663 31.24ZM39.5263 19.76H39.0263V20.8734L39.8584 20.1337L39.5263 19.76ZM39.3263 16.64L38.8331 16.7222L38.8351 16.7343L38.8377 16.7462L39.3263 16.64ZM38.7262 15.2L38.3421 15.5201L38.3497 15.5292L38.3577 15.5379L38.7262 15.2ZM37.6063 14.6L37.4978 15.0881L37.5108 15.091L37.5241 15.0932L37.6063 14.6ZM33.6862 14.64L33.7893 15.1293L33.8014 15.1267L33.8135 15.1235L33.6862 14.64ZM32.5262 15.32L32.9104 15.6401L32.9166 15.6326L32.9226 15.6249L32.5262 15.32ZM31.9663 16.76L32.4589 16.8457L32.4594 16.8422L31.9663 16.76ZM31.8063 19.12H31.3063V19.62H31.8063V19.12ZM40.2463 19.12L40.5784 19.4937L41.5613 18.62H40.2463V19.12ZM49.5119 31H49.0119V31.5H49.5119V31ZM49.5119 1.28V0.779999H49.0119V1.28H49.5119ZM54.8319 1.28H55.3319V0.779999H54.8319V1.28ZM54.8319 31V31.5H55.3319V31H54.8319ZM1.19406 31V3.48H0.194061V31H1.19406ZM0.694061 3.98H14.1341V2.98H0.694061V3.98ZM14.1341 3.98C15.8767 3.98 17.2491 4.24096 18.2791 4.73143L18.709 3.82857C17.499 3.25237 15.9648 2.98 14.1341 2.98V3.98ZM18.292 4.73734C19.342 5.2013 20.092 5.89779 20.5692 6.82816L21.459 6.37184C20.8694 5.2222 19.9395 4.37203 18.6961 3.82266L18.292 4.73734ZM20.5764 6.84184C21.0847 7.76154 21.3541 8.93896 21.3541 10.4H22.3541C22.3541 8.82104 22.0634 7.46512 21.4517 6.35816L20.5764 6.84184ZM21.3541 10.4C21.3541 11.6099 21.1864 12.6107 20.8689 13.4167L21.7993 13.7833C22.1751 12.8293 22.3541 11.6968 22.3541 10.4H21.3541ZM20.8689 13.4167C20.5526 14.2196 20.085 14.85 19.4692 15.3237L20.0789 16.1163C20.8498 15.5233 21.4222 14.7404 21.7993 13.7833L20.8689 13.4167ZM19.4692 15.3237C18.8481 15.8015 18.0277 16.1631 16.9869 16.3916L17.2013 17.3684C18.3471 17.1169 19.3134 16.7052 20.0789 16.1163L19.4692 15.3237ZM16.5941 16.88V17.04H17.5941V16.88H16.5941ZM16.9981 17.5307C18.1748 17.7609 19.0675 18.1372 19.7071 18.6347L20.321 17.8453C19.5207 17.2228 18.4666 16.7991 17.1901 16.5493L16.9981 17.5307ZM19.7234 18.6469C20.3824 19.1176 20.855 19.7516 21.1426 20.5664L22.0856 20.2336C21.7331 19.235 21.139 18.4291 20.3047 17.8331L19.7234 18.6469ZM21.1442 20.5709C21.4377 21.3782 21.5941 22.4223 21.5941 23.72H22.5941C22.5941 22.3511 22.4304 21.1818 22.084 20.2291L21.1442 20.5709ZM21.5941 23.72C21.5941 24.7729 21.4657 25.7246 21.2144 26.5789L22.1737 26.8611C22.4558 25.9021 22.5941 24.8538 22.5941 23.72H21.5941ZM21.2156 26.575C20.9708 27.3826 20.5699 28.073 20.0131 28.654L20.7351 29.346C21.4049 28.647 21.884 27.8174 22.1726 26.865L21.2156 26.575ZM20.0055 28.6621C19.4871 29.2277 18.7647 29.6811 17.8122 30.0069L18.1359 30.9531C19.2101 30.5856 20.0877 30.0523 20.7426 29.3379L20.0055 28.6621ZM17.8122 30.0069C16.8678 30.33 15.6602 30.5 14.1741 30.5V31.5C15.728 31.5 17.0536 31.3233 18.1359 30.9531L17.8122 30.0069ZM14.1741 30.5H0.694061V31.5H14.1741V30.5ZM6.37406 26.94H12.2941V25.94H6.37406V26.94ZM12.2941 26.94C13.382 26.94 14.2782 26.8457 14.9596 26.6383L14.6685 25.6817C14.1233 25.8476 13.3395 25.94 12.2941 25.94V26.94ZM14.9783 26.6322C15.6989 26.3816 16.2365 25.9351 16.5149 25.274L15.5932 24.886C15.4449 25.2383 15.1559 25.5117 14.6498 25.6878L14.9783 26.6322ZM16.51 25.2852C16.7912 24.6603 16.9141 23.8467 16.9141 22.88H15.9141C15.9141 23.78 15.7969 24.4331 15.5981 24.8748L16.51 25.2852ZM16.9141 22.88C16.9141 21.9398 16.7913 21.1484 16.5059 20.546L15.6022 20.974C15.7968 21.385 15.9141 22.0069 15.9141 22.88H16.9141ZM16.51 20.5548C16.2071 19.8816 15.6656 19.4207 14.9383 19.1678L14.6098 20.1122C15.1092 20.2859 15.421 20.5717 15.5981 20.9652L16.51 20.5548ZM14.9449 19.1701C14.278 18.9276 13.3838 18.82 12.2941 18.82V19.82C13.3377 19.82 14.0968 19.9257 14.6032 20.1099L14.9449 19.1701ZM12.2941 18.82H6.37406V19.82H12.2941V18.82ZM5.87406 19.32V26.44H6.87406V19.32H5.87406ZM6.37406 15.34H12.0941V14.34H6.37406V15.34ZM12.0941 15.34C13.134 15.34 14.0001 15.2317 14.6649 14.9899L14.3232 14.0501C13.8147 14.235 13.0808 14.34 12.0941 14.34V15.34ZM14.6583 14.9922C15.3673 14.7457 15.9111 14.3239 16.2213 13.7036L15.3268 13.2564C15.157 13.5961 14.8475 13.8677 14.3298 14.0478L14.6583 14.9922ZM16.2165 13.7129C16.533 13.1116 16.6741 12.3707 16.6741 11.52H15.6741C15.6741 12.2693 15.5485 12.8351 15.3316 13.2471L16.2165 13.7129ZM16.6741 11.52C16.6741 10.5585 16.5528 9.75952 16.2613 9.17639L15.3668 9.62361C15.5553 10.0005 15.6741 10.6149 15.6741 11.52H16.6741ZM16.2749 9.20597C15.9975 8.54731 15.473 8.1086 14.7657 7.88354L14.4625 8.83646C14.9284 8.98473 15.2039 9.23936 15.3532 9.59403L16.2749 9.20597ZM14.7722 7.88566C14.134 7.67294 13.2287 7.58 12.0941 7.58V8.58C13.1995 8.58 13.9741 8.67373 14.4559 8.83434L14.7722 7.88566ZM12.0941 7.58H6.37406V8.58H12.0941V7.58ZM5.87406 8.08V14.84H6.87406V8.08H5.87406ZM36.3263 30.82C34.5317 30.82 33.0606 30.701 31.9043 30.4697L31.7082 31.4503C32.9519 31.699 34.4941 31.82 36.3263 31.82V30.82ZM31.9043 30.4697C30.7477 30.2384 29.8595 29.8853 29.214 29.4311L28.6385 30.2489C29.433 30.808 30.4649 31.2016 31.7082 31.4503L31.9043 30.4697ZM29.2311 29.4437C28.6019 28.9597 28.1191 28.3566 27.7793 27.6286L26.8732 28.0514C27.2801 28.9234 27.8639 29.6537 28.6214 30.2363L29.2311 29.4437ZM27.7873 27.6466C27.465 26.878 27.2473 25.9434 27.1441 24.8337L26.1484 24.9263C26.2585 26.11 26.4942 27.1487 26.8652 28.0334L27.7873 27.6466ZM27.1451 24.846C27.066 23.6867 27.0262 22.3517 27.0262 20.84H26.0262C26.0262 22.3683 26.0665 23.7267 26.1474 24.914L27.1451 24.846ZM27.0262 20.84C27.0262 19.0425 27.1189 17.4934 27.3014 16.1893L26.3111 16.0507C26.1203 17.4133 26.0262 19.0109 26.0262 20.84H27.0262ZM27.3014 16.1893C27.4804 14.9106 27.8467 13.8965 28.3783 13.1233L27.5542 12.5567C26.9125 13.4902 26.5054 14.6628 26.3111 16.0507L27.3014 16.1893ZM28.3765 13.1259C28.9138 12.3549 29.7453 11.7707 30.9183 11.3963L30.6142 10.4437C29.2805 10.8693 28.2453 11.5651 27.5561 12.5541L28.3765 13.1259ZM30.9244 11.3943C32.1331 10.9914 33.7667 10.78 35.8463 10.78V9.78C33.7125 9.78 31.9594 9.99524 30.6081 10.4457L30.9244 11.3943ZM35.8463 10.78C37.5319 10.78 38.8735 10.9122 39.885 11.1651L40.1275 10.1949C39.0057 9.91448 37.574 9.78 35.8463 9.78V10.78ZM39.885 11.1651C40.9009 11.419 41.6615 11.7906 42.1982 12.2573L42.8543 11.5027C42.1643 10.9027 41.245 10.4743 40.1275 10.1949L39.885 11.1651ZM42.2062 12.2641C42.7668 12.7313 43.1688 13.3406 43.409 14.1091L44.3635 13.8109C44.0703 12.8727 43.5657 12.0953 42.8463 11.4959L42.2062 12.2641ZM43.415 14.1272C43.6894 14.9003 43.8697 15.8402 43.9475 16.9548L44.945 16.8852C44.8628 15.7065 44.6698 14.673 44.3575 13.7928L43.415 14.1272ZM43.9475 16.9548C44.0265 18.0872 44.0662 19.382 44.0662 20.84H45.0662C45.0662 19.3647 45.026 18.0461 44.945 16.8852L43.9475 16.9548ZM44.0662 20.84V22.4H45.0662V20.84H44.0662ZM44.5662 21.9H31.8063V22.9H44.5662V21.9ZM31.3063 22.4C31.3063 23.4238 31.3465 24.2733 31.4301 24.942L32.4224 24.818C32.346 24.2067 32.3063 23.4029 32.3063 22.4H31.3063ZM31.4336 24.9657C31.5531 25.6527 31.8173 26.2322 32.2671 26.6474L32.9454 25.9126C32.7019 25.6878 32.5127 25.334 32.4189 24.7943L31.4336 24.9657ZM32.2809 26.6596C32.7582 27.0687 33.4406 27.3026 34.2579 27.4153L34.3946 26.4247C33.6652 26.3241 33.201 26.1313 32.9316 25.9004L32.2809 26.6596ZM34.2602 27.4156C35.0919 27.5265 36.1969 27.58 37.5662 27.58V26.58C36.2156 26.58 35.1606 26.5268 34.3923 26.4244L34.2602 27.4156ZM37.5662 27.58C38.134 27.58 38.7672 27.5665 39.4655 27.5396L39.427 26.5404C38.7387 26.5668 38.1185 26.58 37.5662 26.58V27.58ZM39.4648 27.5397C40.1907 27.5128 40.9297 27.4725 41.6819 27.4187L41.6106 26.4213C40.8694 26.4742 40.1418 26.5139 39.4277 26.5403L39.4648 27.5397ZM41.6807 27.4188C42.4559 27.3653 43.165 27.3118 43.8078 27.2583L43.7247 26.2617C43.0875 26.3148 42.3833 26.368 41.6119 26.4212L41.6807 27.4188ZM43.2663 26.76V30.68H44.2663V26.76H43.2663ZM43.6554 30.1924C43.0967 30.3194 42.3996 30.4234 41.5596 30.5022L41.6529 31.4978C42.5196 31.4166 43.2625 31.3072 43.8771 31.1676L43.6554 30.1924ZM41.5423 30.5041C40.7287 30.6091 39.8606 30.6881 38.9377 30.7408L38.9948 31.7392C39.9386 31.6853 40.8305 31.6042 41.6702 31.4959L41.5423 30.5041ZM38.9369 30.7409C38.0394 30.7937 37.1692 30.82 36.3263 30.82V31.82C37.19 31.82 38.0798 31.793 38.9956 31.7391L38.9369 30.7409ZM40.0263 19.76V19.12H39.0263V19.76H40.0263ZM40.0263 19.12C40.0263 18.0643 39.9591 17.1973 39.8148 16.5338L38.8377 16.7462C38.9601 17.3094 39.0263 18.0957 39.0263 19.12H40.0263ZM39.8194 16.5578C39.7042 15.8666 39.4784 15.2806 39.0948 14.8621L38.3577 15.5379C38.5607 15.7594 38.7349 16.1334 38.8331 16.7222L39.8194 16.5578ZM39.1104 14.8799C38.7544 14.4528 38.2656 14.203 37.6885 14.1068L37.5241 15.0932C37.9069 15.157 38.1647 15.3072 38.3421 15.5201L39.1104 14.8799ZM37.7147 14.1119C37.1858 13.9944 36.5327 13.94 35.7663 13.94V14.94C36.4931 14.94 37.0667 14.9923 37.4978 15.0881L37.7147 14.1119ZM35.7663 13.94C34.8681 13.94 34.1258 14.0073 33.559 14.1565L33.8135 15.1235C34.26 15.006 34.9044 14.94 35.7663 14.94V13.94ZM33.5832 14.1507C32.9825 14.2772 32.4822 14.5572 32.1299 15.0151L32.9226 15.6249C33.1037 15.3894 33.3767 15.2161 33.7893 15.1293L33.5832 14.1507ZM32.1421 14.9999C31.7954 15.416 31.5869 15.9948 31.4731 16.6778L32.4594 16.8422C32.559 16.2452 32.7238 15.864 32.9104 15.6401L32.1421 14.9999ZM31.4736 16.6743C31.3602 17.3268 31.3063 18.1449 31.3063 19.12H32.3063C32.3063 18.1751 32.359 17.4199 32.4589 16.8457L31.4736 16.6743ZM31.8063 19.62H40.2463V18.62H31.8063V19.62ZM39.9141 18.7463L39.1941 19.3863L39.8584 20.1337L40.5784 19.4937L39.9141 18.7463ZM50.0119 31V1.28H49.0119V31H50.0119ZM49.5119 1.78H54.8319V0.779999H49.5119V1.78ZM54.3319 1.28V31H55.3319V1.28H54.3319ZM54.8319 30.5H49.5119V31.5H54.8319V30.5Z" fill="#F5F5F5" mask="url(#path-1-outside-1_316_7)"/>
<mask id="path-3-outside-2_316_7" maskUnits="userSpaceOnUse" x="59.9675" y="2.48" width="82" height="30" fill="black">
<rect fill="white" x="59.9675" y="2.48" width="82" height="30"/>
<path d="M60.9675 31V3.48H70.3275C72.7008 3.48 74.6342 3.6 76.1275 3.84C77.6475 4.08 78.8342 4.50666 79.6875 5.12C80.5675 5.70666 81.1942 6.53333 81.5675 7.59999C81.9675 8.64 82.2208 9.94666 82.3275 11.52C82.4342 13.0933 82.4875 15 82.4875 17.24C82.4875 19.48 82.4342 21.3867 82.3275 22.96C82.2208 24.5333 81.9675 25.8533 81.5675 26.92C81.1942 27.96 80.5675 28.7867 79.6875 29.4C78.8342 29.9867 77.6475 30.4 76.1275 30.64C74.6342 30.88 72.7008 31 70.3275 31H60.9675ZM66.6475 26.36H70.0075C71.3142 26.36 72.3808 26.3333 73.2075 26.28C74.0608 26.2 74.7275 26.0267 75.2075 25.76C75.7142 25.4933 76.0742 25.04 76.2875 24.4C76.5008 23.7333 76.6342 22.8267 76.6875 21.68C76.7675 20.5333 76.8075 19.0533 76.8075 17.24C76.8075 15.4533 76.7675 13.9867 76.6875 12.84C76.6342 11.6667 76.4875 10.76 76.2475 10.12C76.0342 9.48 75.6742 9.02666 75.1675 8.75999C74.6875 8.46666 74.0342 8.29333 73.2075 8.24C72.3808 8.16 71.3142 8.12 70.0075 8.12H66.6475V26.36Z"/>
<path d="M94.2722 31.32C92.8855 31.32 91.7655 31.1467 90.9122 30.8C90.0589 30.4533 89.4055 29.9467 88.9522 29.28C88.5255 28.6133 88.2322 27.7867 88.0722 26.8C87.9122 25.8133 87.8322 24.6667 87.8322 23.36V10.6H93.1122V21.4C93.1122 22.6267 93.1522 23.6 93.2322 24.32C93.3122 25.04 93.4722 25.5733 93.7122 25.92C93.9522 26.2667 94.3122 26.4933 94.7922 26.6C95.2722 26.68 95.9122 26.72 96.7122 26.72C97.5655 26.72 98.2589 26.6267 98.7922 26.44C99.3255 26.2267 99.7122 25.9067 99.9522 25.48C100.219 25.0267 100.392 24.4533 100.472 23.76C100.552 23.04 100.592 22.1733 100.592 21.16V10.6H105.872V31H100.952L100.792 28.44H100.432C100.112 29.08 99.6589 29.6267 99.0722 30.08C98.5122 30.5067 97.8322 30.8133 97.0322 31C96.2322 31.2133 95.3122 31.32 94.2722 31.32Z"/>
<path d="M111.543 31V10.6H116.503L116.663 13.16H116.943C117.29 12.52 117.73 11.9867 118.263 11.56C118.823 11.1067 119.476 10.7867 120.223 10.6C120.996 10.3867 121.863 10.28 122.823 10.28C124.45 10.28 125.676 10.52 126.503 11C127.356 11.4533 127.956 12.1733 128.303 13.16H128.623C128.97 12.52 129.423 11.9867 129.983 11.56C130.57 11.1067 131.25 10.7867 132.023 10.6C132.796 10.3867 133.676 10.28 134.663 10.28C136.396 10.28 137.69 10.5867 138.543 11.2C139.396 11.7867 139.97 12.68 140.263 13.88C140.556 15.0533 140.703 16.5067 140.703 18.24V31H135.423V20.2C135.423 18.9733 135.383 18 135.303 17.28C135.223 16.56 135.076 16.0267 134.863 15.68C134.676 15.3333 134.37 15.12 133.943 15.04C133.516 14.9333 132.943 14.88 132.223 14.88C131.45 14.88 130.823 14.9867 130.343 15.2C129.89 15.3867 129.543 15.6933 129.303 16.12C129.09 16.5467 128.943 17.12 128.863 17.84C128.81 18.5333 128.783 19.4 128.783 20.44V31H123.463V20.2C123.463 18.9733 123.423 18 123.343 17.28C123.29 16.56 123.156 16.0267 122.943 15.68C122.73 15.3333 122.41 15.12 121.983 15.04C121.556 14.9333 120.996 14.88 120.303 14.88C119.53 14.88 118.903 14.9867 118.423 15.2C117.97 15.3867 117.623 15.6933 117.383 16.12C117.17 16.5467 117.023 17.12 116.943 17.84C116.863 18.56 116.823 19.4267 116.823 20.44V31H111.543Z"/>
</mask>
<path d="M60.9675 31V3.48H70.3275C72.7008 3.48 74.6342 3.6 76.1275 3.84C77.6475 4.08 78.8342 4.50666 79.6875 5.12C80.5675 5.70666 81.1942 6.53333 81.5675 7.59999C81.9675 8.64 82.2208 9.94666 82.3275 11.52C82.4342 13.0933 82.4875 15 82.4875 17.24C82.4875 19.48 82.4342 21.3867 82.3275 22.96C82.2208 24.5333 81.9675 25.8533 81.5675 26.92C81.1942 27.96 80.5675 28.7867 79.6875 29.4C78.8342 29.9867 77.6475 30.4 76.1275 30.64C74.6342 30.88 72.7008 31 70.3275 31H60.9675ZM66.6475 26.36H70.0075C71.3142 26.36 72.3808 26.3333 73.2075 26.28C74.0608 26.2 74.7275 26.0267 75.2075 25.76C75.7142 25.4933 76.0742 25.04 76.2875 24.4C76.5008 23.7333 76.6342 22.8267 76.6875 21.68C76.7675 20.5333 76.8075 19.0533 76.8075 17.24C76.8075 15.4533 76.7675 13.9867 76.6875 12.84C76.6342 11.6667 76.4875 10.76 76.2475 10.12C76.0342 9.48 75.6742 9.02666 75.1675 8.75999C74.6875 8.46666 74.0342 8.29333 73.2075 8.24C72.3808 8.16 71.3142 8.12 70.0075 8.12H66.6475V26.36Z" fill="#F5F5F5"/>
<path d="M94.2722 31.32C92.8855 31.32 91.7655 31.1467 90.9122 30.8C90.0589 30.4533 89.4055 29.9467 88.9522 29.28C88.5255 28.6133 88.2322 27.7867 88.0722 26.8C87.9122 25.8133 87.8322 24.6667 87.8322 23.36V10.6H93.1122V21.4C93.1122 22.6267 93.1522 23.6 93.2322 24.32C93.3122 25.04 93.4722 25.5733 93.7122 25.92C93.9522 26.2667 94.3122 26.4933 94.7922 26.6C95.2722 26.68 95.9122 26.72 96.7122 26.72C97.5655 26.72 98.2589 26.6267 98.7922 26.44C99.3255 26.2267 99.7122 25.9067 99.9522 25.48C100.219 25.0267 100.392 24.4533 100.472 23.76C100.552 23.04 100.592 22.1733 100.592 21.16V10.6H105.872V31H100.952L100.792 28.44H100.432C100.112 29.08 99.6589 29.6267 99.0722 30.08C98.5122 30.5067 97.8322 30.8133 97.0322 31C96.2322 31.2133 95.3122 31.32 94.2722 31.32Z" fill="#F5F5F5"/>
<path d="M111.543 31V10.6H116.503L116.663 13.16H116.943C117.29 12.52 117.73 11.9867 118.263 11.56C118.823 11.1067 119.476 10.7867 120.223 10.6C120.996 10.3867 121.863 10.28 122.823 10.28C124.45 10.28 125.676 10.52 126.503 11C127.356 11.4533 127.956 12.1733 128.303 13.16H128.623C128.97 12.52 129.423 11.9867 129.983 11.56C130.57 11.1067 131.25 10.7867 132.023 10.6C132.796 10.3867 133.676 10.28 134.663 10.28C136.396 10.28 137.69 10.5867 138.543 11.2C139.396 11.7867 139.97 12.68 140.263 13.88C140.556 15.0533 140.703 16.5067 140.703 18.24V31H135.423V20.2C135.423 18.9733 135.383 18 135.303 17.28C135.223 16.56 135.076 16.0267 134.863 15.68C134.676 15.3333 134.37 15.12 133.943 15.04C133.516 14.9333 132.943 14.88 132.223 14.88C131.45 14.88 130.823 14.9867 130.343 15.2C129.89 15.3867 129.543 15.6933 129.303 16.12C129.09 16.5467 128.943 17.12 128.863 17.84C128.81 18.5333 128.783 19.4 128.783 20.44V31H123.463V20.2C123.463 18.9733 123.423 18 123.343 17.28C123.29 16.56 123.156 16.0267 122.943 15.68C122.73 15.3333 122.41 15.12 121.983 15.04C121.556 14.9333 120.996 14.88 120.303 14.88C119.53 14.88 118.903 14.9867 118.423 15.2C117.97 15.3867 117.623 15.6933 117.383 16.12C117.17 16.5467 117.023 17.12 116.943 17.84C116.863 18.56 116.823 19.4267 116.823 20.44V31H111.543Z" fill="#F5F5F5"/>
<path d="M60.9675 31H60.4675V31.5H60.9675V31ZM60.9675 3.48V2.98H60.4675V3.48H60.9675ZM76.1275 3.84L76.0482 4.33366L76.0495 4.33388L76.1275 3.84ZM79.6875 5.12L79.3957 5.526L79.4028 5.53114L79.4101 5.53602L79.6875 5.12ZM81.5675 7.59999L81.0956 7.76517L81.0981 7.77237L81.1008 7.77948L81.5675 7.59999ZM82.3275 11.52L82.8264 11.4862L82.8264 11.4862L82.3275 11.52ZM82.3275 22.96L82.8264 22.9938L82.8264 22.9938L82.3275 22.96ZM81.5675 26.92L81.0993 26.7444L81.0969 26.7511L81.5675 26.92ZM79.6875 29.4L79.9708 29.812L79.9734 29.8102L79.6875 29.4ZM76.1275 30.64L76.0495 30.1461L76.0482 30.1463L76.1275 30.64ZM66.6475 26.36H66.1475V26.86H66.6475V26.36ZM73.2075 26.28L73.2397 26.779L73.2469 26.7785L73.2542 26.7778L73.2075 26.28ZM75.2075 25.76L74.9746 25.3174L74.9647 25.3229L75.2075 25.76ZM76.2875 24.4L76.7619 24.5581L76.7637 24.5524L76.2875 24.4ZM76.6875 21.68L76.1886 21.6452L76.188 21.6568L76.6875 21.68ZM76.6875 12.84L76.1879 12.8627L76.1887 12.8748L76.6875 12.84ZM76.2475 10.12L75.7732 10.2781L75.7761 10.2869L75.7793 10.2956L76.2475 10.12ZM75.1675 8.75999L74.9068 9.18664L74.9205 9.19499L74.9346 9.20245L75.1675 8.75999ZM73.2075 8.24L73.1593 8.73767L73.1673 8.73844L73.1753 8.73896L73.2075 8.24ZM66.6475 8.12V7.62H66.1475V8.12H66.6475ZM90.9122 30.8L90.724 31.2632L90.724 31.2632L90.9122 30.8ZM88.9522 29.28L88.5309 29.5496L88.5387 29.5611L88.9522 29.28ZM88.0722 26.8L88.5657 26.72L88.5657 26.72L88.0722 26.8ZM87.8322 10.6V10.1H87.3322V10.6H87.8322ZM93.1122 10.6H93.6122V10.1H93.1122V10.6ZM93.2322 24.32L93.7291 24.2648L93.7291 24.2648L93.2322 24.32ZM94.7922 26.6L94.6837 27.0881L94.6968 27.091L94.71 27.0932L94.7922 26.6ZM98.7922 26.44L98.9574 26.9119L98.9677 26.9083L98.9779 26.9042L98.7922 26.44ZM99.9522 25.48L99.5211 25.2264L99.5164 25.2349L99.9522 25.48ZM100.472 23.76L100.969 23.8173L100.969 23.8152L100.472 23.76ZM100.592 10.6V10.1H100.092V10.6H100.592ZM105.872 10.6H106.372V10.1H105.872V10.6ZM105.872 31V31.5H106.372V31H105.872ZM100.952 31L100.453 31.0312L100.482 31.5H100.952V31ZM100.792 28.44L101.291 28.4088L101.262 27.94H100.792V28.44ZM100.432 28.44V27.94H100.123L99.985 28.2164L100.432 28.44ZM99.0722 30.08L99.3752 30.4777L99.3779 30.4756L99.0722 30.08ZM97.0322 31L96.9186 30.5131L96.9109 30.5149L96.9034 30.5169L97.0322 31ZM111.543 31H111.043V31.5H111.543V31ZM111.543 10.6V10.1H111.043V10.6H111.543ZM116.503 10.6L117.002 10.5688L116.973 10.1H116.503V10.6ZM116.663 13.16L116.164 13.1912L116.193 13.66H116.663V13.16ZM116.943 13.16V13.66H117.241L117.383 13.3981L116.943 13.16ZM118.263 11.56L118.575 11.9504L118.578 11.9486L118.263 11.56ZM120.223 10.6L120.344 11.0852L120.356 11.082L120.223 10.6ZM126.503 11L126.252 11.4324L126.26 11.4371L126.269 11.4416L126.503 11ZM128.303 13.16L127.831 13.3257L127.949 13.66H128.303V13.16ZM128.623 13.16V13.66H128.921L129.063 13.3981L128.623 13.16ZM129.983 11.56L130.286 11.9577L130.289 11.9556L129.983 11.56ZM132.023 10.6L132.14 11.086L132.148 11.0841L132.156 11.082L132.023 10.6ZM138.543 11.2L138.251 11.6061L138.26 11.612L138.543 11.2ZM140.263 13.88L139.777 13.9987L139.778 14.0013L140.263 13.88ZM140.703 31V31.5H141.203V31H140.703ZM135.423 31H134.923V31.5H135.423V31ZM135.303 17.28L134.806 17.3352L134.806 17.3352L135.303 17.28ZM134.863 15.68L134.423 15.917L134.43 15.9298L134.437 15.942L134.863 15.68ZM133.943 15.04L133.822 15.5251L133.836 15.5287L133.851 15.5314L133.943 15.04ZM130.343 15.2L130.534 15.6625L130.546 15.6569L130.343 15.2ZM129.303 16.12L128.867 15.8749L128.861 15.8855L128.856 15.8964L129.303 16.12ZM128.863 17.84L128.366 17.7848L128.365 17.7932L128.365 17.8016L128.863 17.84ZM128.783 31V31.5H129.283V31H128.783ZM123.463 31H122.963V31.5H123.463V31ZM123.343 17.28L122.844 17.3169L122.845 17.3261L122.846 17.3352L123.343 17.28ZM122.943 15.68L122.517 15.942L122.517 15.942L122.943 15.68ZM121.983 15.04L121.862 15.5251L121.876 15.5287L121.891 15.5314L121.983 15.04ZM118.423 15.2L118.614 15.6625L118.626 15.6569L118.423 15.2ZM117.383 16.12L116.947 15.8749L116.941 15.8855L116.936 15.8964L117.383 16.12ZM116.943 17.84L117.44 17.8952L117.44 17.8952L116.943 17.84ZM116.823 31V31.5H117.323V31H116.823ZM61.4675 31V3.48H60.4675V31H61.4675ZM60.9675 3.98H70.3275V2.98H60.9675V3.98ZM70.3275 3.98C72.6874 3.98 74.5915 4.09955 76.0482 4.33366L76.2068 3.34633C74.6769 3.10045 72.7143 2.98 70.3275 2.98V3.98ZM76.0495 4.33388C77.5255 4.56692 78.6283 4.97447 79.3957 5.526L79.9793 4.71399C79.04 4.03886 77.7695 3.59307 76.2055 3.34611L76.0495 4.33388ZM79.4101 5.53602C80.1934 6.05817 80.7555 6.79356 81.0956 7.76517L82.0394 7.43482C81.6328 6.2731 80.9416 5.35515 79.9649 4.70397L79.4101 5.53602ZM81.1008 7.77948C81.4771 8.7579 81.7241 10.0114 81.8286 11.5538L82.8264 11.4862C82.7176 9.88189 82.4579 8.52209 82.0342 7.4205L81.1008 7.77948ZM81.8286 11.5538C81.9343 13.1123 81.9875 15.007 81.9875 17.24H82.9875C82.9875 14.993 82.934 13.0743 82.8264 11.4862L81.8286 11.5538ZM81.9875 17.24C81.9875 19.473 81.9343 21.3677 81.8286 22.9262L82.8264 22.9938C82.934 21.4057 82.9875 19.487 82.9875 17.24H81.9875ZM81.8286 22.9262C81.7241 24.4682 81.4771 25.737 81.0993 26.7444L82.0357 27.0956C82.4579 25.9697 82.7176 24.5985 82.8264 22.9938L81.8286 22.9262ZM81.0969 26.7511C80.7575 27.6966 80.1938 28.4377 79.4016 28.9898L79.9734 29.8102C80.9412 29.1357 81.6308 28.2234 82.0381 27.0889L81.0969 26.7511ZM79.4042 28.988C78.6349 29.5169 77.5286 29.9126 76.0495 30.1461L76.2055 31.1339C77.7664 30.8874 79.0335 30.4564 79.9708 29.812L79.4042 28.988ZM76.0482 30.1463C74.5915 30.3804 72.6874 30.5 70.3275 30.5V31.5C72.7143 31.5 74.6769 31.3795 76.2068 31.1337L76.0482 30.1463ZM70.3275 30.5H60.9675V31.5H70.3275V30.5ZM66.6475 26.86H70.0075V25.86H66.6475V26.86ZM70.0075 26.86C71.3196 26.86 72.398 26.8333 73.2397 26.779L73.1753 25.781C72.3636 25.8334 71.3088 25.86 70.0075 25.86V26.86ZM73.2542 26.7778C74.1419 26.6946 74.8855 26.5109 75.4503 26.1971L74.9647 25.3229C74.5695 25.5425 73.9798 25.7054 73.1608 25.7822L73.2542 26.7778ZM75.4404 26.2025C76.0813 25.8651 76.5155 25.2972 76.7618 24.5581L75.8132 24.2419C75.6328 24.7828 75.3471 25.1215 74.9746 25.3175L75.4404 26.2025ZM76.7637 24.5524C76.9962 23.8258 77.1327 22.8696 77.187 21.7032L76.188 21.6568C76.1356 22.7837 76.0055 23.6408 75.8113 24.2476L76.7637 24.5524ZM77.1863 21.7148C77.2674 20.5519 77.3075 19.0591 77.3075 17.24H76.3075C76.3075 19.0475 76.2676 20.5147 76.1887 21.6452L77.1863 21.7148ZM77.3075 17.24C77.3075 15.4473 77.2674 13.9679 77.1863 12.8052L76.1887 12.8748C76.2676 14.0054 76.3075 15.4593 76.3075 17.24H77.3075ZM77.187 12.8173C77.1327 11.6235 76.9826 10.6563 76.7157 9.94443L75.7793 10.2956C75.9924 10.8637 76.1356 11.7098 76.188 12.8627L77.187 12.8173ZM76.7218 9.96188C76.4755 9.22283 76.0413 8.65484 75.4004 8.31754L74.9346 9.20245C75.3071 9.39848 75.5928 9.73716 75.7732 10.2781L76.7218 9.96188ZM75.4282 8.33335C74.8541 7.98247 74.1119 7.7973 73.2397 7.74103L73.1753 8.73896C73.9565 8.78935 74.5209 8.95085 74.9068 9.18664L75.4282 8.33335ZM73.2557 7.74232C72.4066 7.66016 71.3223 7.62 70.0075 7.62V8.62C71.3061 8.62 72.355 8.65983 73.1593 8.73767L73.2557 7.74232ZM70.0075 7.62H66.6475V8.62H70.0075V7.62ZM66.1475 8.12V26.36H67.1475V8.12H66.1475ZM94.2722 30.82C92.9206 30.82 91.8716 30.6501 91.1004 30.3368L90.724 31.2632C91.6594 31.6432 92.8505 31.82 94.2722 31.82V30.82ZM91.1004 30.3368C90.325 30.0218 89.7559 29.5727 89.3656 28.9988L88.5387 29.5611C89.0552 30.3206 89.7927 30.8849 90.724 31.2632L91.1004 30.3368ZM89.3733 29.0105C88.9918 28.4143 88.7176 27.6563 88.5657 26.72L87.5786 26.88C87.7468 27.917 88.0592 28.8123 88.5311 29.5495L89.3733 29.0105ZM88.5657 26.72C88.4111 25.7664 88.3322 24.6475 88.3322 23.36H87.3322C87.3322 24.6858 87.4133 25.8603 87.5786 26.88L88.5657 26.72ZM88.3322 23.36V10.6H87.3322V23.36H88.3322ZM87.8322 11.1H93.1122V10.1H87.8322V11.1ZM92.6122 10.6V21.4H93.6122V10.6H92.6122ZM92.6122 21.4C92.6122 22.6344 92.6523 23.6286 92.7352 24.3752L93.7291 24.2648C93.6521 23.5714 93.6122 22.619 93.6122 21.4H92.6122ZM92.7352 24.3752C92.8187 25.1261 92.9913 25.7571 93.3011 26.2046L94.1233 25.6354C93.9531 25.3896 93.8057 24.9539 93.7291 24.2648L92.7352 24.3752ZM93.3011 26.2046C93.6245 26.6718 94.1026 26.959 94.6837 27.0881L94.9007 26.1119C94.5218 26.0277 94.2799 25.8615 94.1233 25.6354L93.3011 26.2046ZM94.71 27.0932C95.2288 27.1797 95.8998 27.22 96.7122 27.22V26.22C95.9246 26.22 95.3155 26.1803 94.8744 26.1068L94.71 27.0932ZM96.7122 27.22C97.5961 27.22 98.3512 27.1241 98.9574 26.9119L98.627 25.9681C98.1666 26.1292 97.535 26.22 96.7122 26.22V27.22ZM98.9779 26.9042C99.5979 26.6562 100.083 26.2679 100.388 25.7251L99.5164 25.2349C99.3417 25.5455 99.0531 25.7971 98.6065 25.9758L98.9779 26.9042ZM100.383 25.7335C100.695 25.2039 100.883 24.5584 100.969 23.8173L99.9755 23.7027C99.901 24.3483 99.743 24.8495 99.5212 25.2265L100.383 25.7335ZM100.969 23.8152C101.052 23.0713 101.092 22.1851 101.092 21.16H100.092C100.092 22.1615 100.053 23.0087 99.9752 23.7048L100.969 23.8152ZM101.092 21.16V10.6H100.092V21.16H101.092ZM100.592 11.1H105.872V10.1H100.592V11.1ZM105.372 10.6V31H106.372V10.6H105.372ZM105.872 30.5H100.952V31.5H105.872V30.5ZM101.451 30.9688L101.291 28.4088L100.293 28.4712L100.453 31.0312L101.451 30.9688ZM100.792 27.94H100.432V28.94H100.792V27.94ZM99.985 28.2164C99.6998 28.7867 99.2958 29.2753 98.7665 29.6844L99.3779 30.4756C100.022 29.978 100.525 29.3733 100.879 28.6636L99.985 28.2164ZM98.7692 29.6823C98.2739 30.0596 97.6612 30.3398 96.9186 30.5131L97.1458 31.4869C98.0032 31.2869 98.7505 30.9537 99.3752 30.4777L98.7692 29.6823ZM96.9034 30.5169C96.1545 30.7166 95.2793 30.82 94.2722 30.82V31.82C95.3451 31.82 96.3099 31.7101 97.161 31.4831L96.9034 30.5169ZM112.043 31V10.6H111.043V31H112.043ZM111.543 11.1H116.503V10.1H111.543V11.1ZM116.004 10.6312L116.164 13.1912L117.162 13.1288L117.002 10.5688L116.004 10.6312ZM116.663 13.66H116.943V12.66H116.663V13.66ZM117.383 13.3981C117.7 12.813 118.098 12.3327 118.575 11.9504L117.951 11.1696C117.362 11.6407 116.88 12.227 116.503 12.9219L117.383 13.3981ZM118.578 11.9486C119.077 11.5442 119.664 11.2553 120.344 11.0851L120.102 10.1149C119.289 10.318 118.569 10.6691 117.949 11.1714L118.578 11.9486ZM120.356 11.082C121.079 10.8827 121.9 10.78 122.823 10.78V9.77999C121.827 9.77999 120.914 9.89065 120.09 10.118L120.356 11.082ZM122.823 10.78C124.416 10.78 125.538 11.0177 126.252 11.4324L126.754 10.5676C125.815 10.0223 124.484 9.77999 122.823 9.77999V10.78ZM126.269 11.4416C127.001 11.8309 127.523 12.4469 127.831 13.3257L128.775 12.9943C128.39 11.8998 127.711 11.0758 126.738 10.5584L126.269 11.4416ZM128.303 13.66H128.623V12.66H128.303V13.66ZM129.063 13.3981C129.377 12.8182 129.784 12.34 130.286 11.9577L129.68 11.1623C129.062 11.6333 128.563 12.2217 128.183 12.9219L129.063 13.3981ZM130.289 11.9556C130.816 11.5485 131.431 11.2574 132.14 11.086L131.906 10.114C131.069 10.3159 130.324 10.6649 129.677 11.1644L130.289 11.9556ZM132.156 11.082C132.878 10.883 133.712 10.78 134.663 10.78V9.77999C133.641 9.77999 132.715 9.89035 131.89 10.118L132.156 11.082ZM134.663 10.78C136.354 10.78 137.522 11.082 138.251 11.606L138.835 10.794C137.857 10.0913 136.439 9.77999 134.663 9.77999V10.78ZM138.26 11.612C138.993 12.1161 139.507 12.8938 139.777 13.9987L140.749 13.7613C140.432 12.4662 139.8 11.4572 138.826 10.788L138.26 11.612ZM139.778 14.0013C140.058 15.1219 140.203 16.5315 140.203 18.24H141.203C141.203 16.4818 141.055 14.9847 140.748 13.7587L139.778 14.0013ZM140.203 18.24V31H141.203V18.24H140.203ZM140.703 30.5H135.423V31.5H140.703V30.5ZM135.923 31V20.2H134.923V31H135.923ZM135.923 20.2C135.923 18.9656 135.883 17.9714 135.8 17.2248L134.806 17.3352C134.883 18.0286 134.923 18.981 134.923 20.2H135.923ZM135.8 17.2248C135.717 16.48 135.56 15.8589 135.289 15.4179L134.437 15.942C134.593 16.1945 134.729 16.64 134.806 17.3352L135.8 17.2248ZM135.303 15.4429C135.037 14.9485 134.593 14.6532 134.035 14.5486L133.851 15.5314C134.146 15.5868 134.316 15.7182 134.423 15.917L135.303 15.4429ZM134.064 14.5549C133.581 14.4341 132.962 14.38 132.223 14.38V15.38C132.925 15.38 133.452 15.4326 133.822 15.5251L134.064 14.5549ZM132.223 14.38C131.41 14.38 130.707 14.4912 130.14 14.7431L130.546 15.6569C130.939 15.4821 131.49 15.38 132.223 15.38V14.38ZM130.153 14.7377C129.596 14.967 129.163 15.3501 128.867 15.8749L129.739 16.3651C129.924 16.0365 130.184 15.8063 130.533 15.6623L130.153 14.7377ZM128.856 15.8964C128.606 16.3958 128.45 17.0334 128.366 17.7848L129.36 17.8952C129.437 17.2066 129.573 16.6976 129.75 16.3436L128.856 15.8964ZM128.365 17.8016C128.31 18.5123 128.283 19.3928 128.283 20.44H129.283C129.283 19.4072 129.31 18.5543 129.362 17.8783L128.365 17.8016ZM128.283 20.44V31H129.283V20.44H128.283ZM128.783 30.5H123.463V31.5H128.783V30.5ZM123.963 31V20.2H122.963V31H123.963ZM123.963 20.2C123.963 18.9656 123.923 17.9714 123.84 17.2248L122.846 17.3352C122.923 18.0286 122.963 18.981 122.963 20.2H123.963ZM123.842 17.2431C123.786 16.4961 123.645 15.8668 123.369 15.4179L122.517 15.942C122.668 16.1865 122.793 16.6239 122.844 17.3169L123.842 17.2431ZM123.369 15.4179C123.076 14.9425 122.63 14.6526 122.075 14.5486L121.891 15.5314C122.189 15.5874 122.383 15.7242 122.517 15.942L123.369 15.4179ZM122.104 14.5549C121.622 14.4344 121.017 14.38 120.303 14.38V15.38C120.976 15.38 121.491 15.4323 121.862 15.5251L122.104 14.5549ZM120.303 14.38C119.49 14.38 118.787 14.4912 118.22 14.7431L118.626 15.6569C119.019 15.4821 119.57 15.38 120.303 15.38V14.38ZM118.233 14.7377C117.676 14.967 117.243 15.3501 116.947 15.8749L117.819 16.3651C118.004 16.0365 118.264 15.8063 118.614 15.6623L118.233 14.7377ZM116.936 15.8964C116.686 16.3958 116.53 17.0334 116.446 17.7848L117.44 17.8952C117.517 17.2066 117.653 16.6976 117.83 16.3436L116.936 15.8964ZM116.446 17.7848C116.364 18.5287 116.323 19.4149 116.323 20.44H117.323C117.323 19.4384 117.363 18.5913 117.44 17.8952L116.446 17.7848ZM116.323 20.44V31H117.323V20.44H116.323ZM116.823 30.5H111.543V31.5H116.823V30.5Z" fill="#49938A" mask="url(#path-3-outside-2_316_7)"/>
</svg>
